<?xml version="1.0" encoding="UTF-8"?>
<svg width="48px" height="37px" viewBox="0 0 48 37" version="1.1" xmlns="http://www.w3.org/2000/svg" xmlns:xlink="http://www.w3.org/1999/xlink">
    <!-- Generator: Sketch 41 (35326) - http://www.bohemiancoding.com/sketch -->
    <title>Artboard 2</title>
    <desc>Created with Sketch.</desc>
    <defs>
        <rect id="path-1" x="12" y="13" width="1" height="1"></rect>
        <mask id="mask-2" maskContentUnits="userSpaceOnUse" maskUnits="objectBoundingBox" x="0" y="0" width="1" height="1" fill="white">
            <use xlink:href="#path-1"></use>
        </mask>
        <rect id="path-3" x="14" y="13" width="1" height="1"></rect>
        <mask id="mask-4" maskContentUnits="userSpaceOnUse" maskUnits="objectBoundingBox" x="0" y="0" width="1" height="1" fill="white">
            <use xlink:href="#path-3"></use>
        </mask>
        <rect id="path-5" x="15" y="12" width="1" height="1"></rect>
        <mask id="mask-6" maskContentUnits="userSpaceOnUse" maskUnits="objectBoundingBox" x="0" y="0" width="1" height="1" fill="white">
            <use xlink:href="#path-5"></use>
        </mask>
        <rect id="path-7" x="13" y="12" width="1" height="1"></rect>
        <mask id="mask-8" maskContentUnits="userSpaceOnUse" maskUnits="objectBoundingBox" x="0" y="0" width="1" height="1" fill="white">
            <use xlink:href="#path-7"></use>
        </mask>
        <rect id="path-9" x="11" y="12" width="1" height="1"></rect>
        <mask id="mask-10" maskContentUnits="userSpaceOnUse" maskUnits="objectBoundingBox" x="0" y="0" width="1" height="1" fill="white">
            <use xlink:href="#path-9"></use>
        </mask>
        <rect id="path-11" x="4" y="13" width="1" height="1"></rect>
        <mask id="mask-12" maskContentUnits="userSpaceOnUse" maskUnits="objectBoundingBox" x="0" y="0" width="1" height="1" fill="white">
            <use xlink:href="#path-11"></use>
        </mask>
        <rect id="path-13" x="12" y="11" width="1" height="1"></rect>
        <mask id="mask-14" maskContentUnits="userSpaceOnUse" maskUnits="objectBoundingBox" x="0" y="0" width="1" height="1" fill="white">
            <use xlink:href="#path-13"></use>
        </mask>
        <rect id="path-15" x="9" y="10" width="1" height="1"></rect>
        <mask id="mask-16" maskContentUnits="userSpaceOnUse" maskUnits="objectBoundingBox" x="0" y="0" width="1" height="1" fill="white">
            <use xlink:href="#path-15"></use>
        </mask>
        <rect id="path-17" x="14" y="11" width="1" height="1"></rect>
        <mask id="mask-18" maskContentUnits="userSpaceOnUse" maskUnits="objectBoundingBox" x="0" y="0" width="1" height="1" fill="white">
            <use xlink:href="#path-17"></use>
        </mask>
        <rect id="path-19" x="15" y="10" width="1" height="1"></rect>
        <mask id="mask-20" maskContentUnits="userSpaceOnUse" maskUnits="objectBoundingBox" x="0" y="0" width="1" height="1" fill="white">
            <use xlink:href="#path-19"></use>
        </mask>
        <rect id="path-21" x="15" y="10" width="4" height="1"></rect>
        <mask id="mask-22" maskContentUnits="userSpaceOnUse" maskUnits="objectBoundingBox" x="0" y="0" width="4" height="1" fill="white">
            <use xlink:href="#path-21"></use>
        </mask>
        <rect id="path-23" x="15" y="8" width="4" height="1"></rect>
        <mask id="mask-24" maskContentUnits="userSpaceOnUse" maskUnits="objectBoundingBox" x="0" y="0" width="4" height="1" fill="white">
            <use xlink:href="#path-23"></use>
        </mask>
        <rect id="path-25" x="15" y="6" width="4" height="1"></rect>
        <mask id="mask-26" maskContentUnits="userSpaceOnUse" maskUnits="objectBoundingBox" x="0" y="0" width="4" height="1" fill="white">
            <use xlink:href="#path-25"></use>
        </mask>
        <rect id="path-27" x="15" y="4" width="4" height="1"></rect>
        <mask id="mask-28" maskContentUnits="userSpaceOnUse" maskUnits="objectBoundingBox" x="0" y="0" width="4" height="1" fill="white">
            <use xlink:href="#path-27"></use>
        </mask>
        <rect id="path-29" x="13" y="1" width="1" height="3"></rect>
        <mask id="mask-30" maskContentUnits="userSpaceOnUse" maskUnits="objectBoundingBox" x="0" y="0" width="1" height="3" fill="white">
            <use xlink:href="#path-29"></use>
        </mask>
        <rect id="path-31" x="14" y="0" width="1" height="3"></rect>
        <mask id="mask-32" maskContentUnits="userSpaceOnUse" maskUnits="objectBoundingBox" x="0" y="0" width="1" height="3" fill="white">
            <use xlink:href="#path-31"></use>
        </mask>
        <rect id="path-33" x="12" y="2" width="1" height="3"></rect>
        <mask id="mask-34" maskContentUnits="userSpaceOnUse" maskUnits="objectBoundingBox" x="0" y="0" width="1" height="3" fill="white">
            <use xlink:href="#path-33"></use>
        </mask>
        <rect id="path-35" x="10" y="2" width="1" height="3"></rect>
        <mask id="mask-36" maskContentUnits="userSpaceOnUse" maskUnits="objectBoundingBox" x="0" y="0" width="1" height="3" fill="white">
            <use xlink:href="#path-35"></use>
        </mask>
        <rect id="path-37" x="9" y="1" width="1" height="3"></rect>
        <mask id="mask-38" maskContentUnits="userSpaceOnUse" maskUnits="objectBoundingBox" x="0" y="0" width="1" height="3" fill="white">
            <use xlink:href="#path-37"></use>
        </mask>
        <rect id="path-39" x="8" y="0" width="1" height="3"></rect>
        <mask id="mask-40" maskContentUnits="userSpaceOnUse" maskUnits="objectBoundingBox" x="0" y="0" width="1" height="3" fill="white">
            <use xlink:href="#path-39"></use>
        </mask>
        <rect id="path-41" x="13" y="10" width="1" height="1"></rect>
        <mask id="mask-42" maskContentUnits="userSpaceOnUse" maskUnits="objectBoundingBox" x="0" y="0" width="1" height="1" fill="white">
            <use xlink:href="#path-41"></use>
        </mask>
        <rect id="path-43" x="11" y="10" width="1" height="1"></rect>
        <mask id="mask-44" maskContentUnits="userSpaceOnUse" maskUnits="objectBoundingBox" x="0" y="0" width="1" height="1" fill="white">
            <use xlink:href="#path-43"></use>
        </mask>
        <rect id="path-45" x="12" y="9" width="1" height="1"></rect>
        <mask id="mask-46" maskContentUnits="userSpaceOnUse" maskUnits="objectBoundingBox" x="0" y="0" width="1" height="1" fill="white">
            <use xlink:href="#path-45"></use>
        </mask>
        <rect id="path-47" x="10" y="9" width="1" height="1"></rect>
        <mask id="mask-48" maskContentUnits="userSpaceOnUse" maskUnits="objectBoundingBox" x="0" y="0" width="1" height="1" fill="white">
            <use xlink:href="#path-47"></use>
        </mask>
        <rect id="path-49" x="9" y="6" width="1" height="1"></rect>
        <mask id="mask-50" maskContentUnits="userSpaceOnUse" maskUnits="objectBoundingBox" x="0" y="0" width="1" height="1" fill="white">
            <use xlink:href="#path-49"></use>
        </mask>
        <rect id="path-51" x="9" y="8" width="1" height="1"></rect>
        <mask id="mask-52" maskContentUnits="userSpaceOnUse" maskUnits="objectBoundingBox" x="0" y="0" width="1" height="1" fill="white">
            <use xlink:href="#path-51"></use>
        </mask>
        <rect id="path-53" x="14" y="9" width="1" height="1"></rect>
        <mask id="mask-54" maskContentUnits="userSpaceOnUse" maskUnits="objectBoundingBox" x="0" y="0" width="1" height="1" fill="white">
            <use xlink:href="#path-53"></use>
        </mask>
        <rect id="path-55" x="15" y="8" width="1" height="1"></rect>
        <mask id="mask-56" maskContentUnits="userSpaceOnUse" maskUnits="objectBoundingBox" x="0" y="0" width="1" height="1" fill="white">
            <use xlink:href="#path-55"></use>
        </mask>
        <rect id="path-57" x="13" y="8" width="1" height="1"></rect>
        <mask id="mask-58" maskContentUnits="userSpaceOnUse" maskUnits="objectBoundingBox" x="0" y="0" width="1" height="1" fill="white">
            <use xlink:href="#path-57"></use>
        </mask>
        <rect id="path-59" x="11" y="8" width="1" height="1"></rect>
        <mask id="mask-60" maskContentUnits="userSpaceOnUse" maskUnits="objectBoundingBox" x="0" y="0" width="1" height="1" fill="white">
            <use xlink:href="#path-59"></use>
        </mask>
        <rect id="path-61" x="12" y="7" width="1" height="1"></rect>
        <mask id="mask-62" maskContentUnits="userSpaceOnUse" maskUnits="objectBoundingBox" x="0" y="0" width="1" height="1" fill="white">
            <use xlink:href="#path-61"></use>
        </mask>
        <rect id="path-63" x="14" y="7" width="1" height="1"></rect>
        <mask id="mask-64" maskContentUnits="userSpaceOnUse" maskUnits="objectBoundingBox" x="0" y="0" width="1" height="1" fill="white">
            <use xlink:href="#path-63"></use>
        </mask>
        <rect id="path-65" x="15" y="6" width="1" height="1"></rect>
        <mask id="mask-66" maskContentUnits="userSpaceOnUse" maskUnits="objectBoundingBox" x="0" y="0" width="1" height="1" fill="white">
            <use xlink:href="#path-65"></use>
        </mask>
        <rect id="path-67" x="13" y="6" width="1" height="1"></rect>
        <mask id="mask-68" maskContentUnits="userSpaceOnUse" maskUnits="objectBoundingBox" x="0" y="0" width="1" height="1" fill="white">
            <use xlink:href="#path-67"></use>
        </mask>
        <rect id="path-69" x="11" y="6" width="1" height="1"></rect>
        <mask id="mask-70" maskContentUnits="userSpaceOnUse" maskUnits="objectBoundingBox" x="0" y="0" width="1" height="1" fill="white">
            <use xlink:href="#path-69"></use>
        </mask>
        <rect id="path-71" x="12" y="5" width="1" height="1"></rect>
        <mask id="mask-72" maskContentUnits="userSpaceOnUse" maskUnits="objectBoundingBox" x="0" y="0" width="1" height="1" fill="white">
            <use xlink:href="#path-71"></use>
        </mask>
        <rect id="path-73" x="10" y="5" width="1" height="1"></rect>
        <mask id="mask-74" maskContentUnits="userSpaceOnUse" maskUnits="objectBoundingBox" x="0" y="0" width="1" height="1" fill="white">
            <use xlink:href="#path-73"></use>
        </mask>
        <rect id="path-75" x="10" y="7" width="1" height="1"></rect>
        <mask id="mask-76" maskContentUnits="userSpaceOnUse" maskUnits="objectBoundingBox" x="0" y="0" width="1" height="1" fill="white">
            <use xlink:href="#path-75"></use>
        </mask>
        <rect id="path-77" x="14" y="5" width="1" height="1"></rect>
        <mask id="mask-78" maskContentUnits="userSpaceOnUse" maskUnits="objectBoundingBox" x="0" y="0" width="1" height="1" fill="white">
            <use xlink:href="#path-77"></use>
        </mask>
        <rect id="path-79" x="15" y="4" width="1" height="1"></rect>
        <mask id="mask-80" maskContentUnits="userSpaceOnUse" maskUnits="objectBoundingBox" x="0" y="0" width="1" height="1" fill="white">
            <use xlink:href="#path-79"></use>
        </mask>
        <rect id="path-81" x="13" y="4" width="1" height="1"></rect>
        <mask id="mask-82" maskContentUnits="userSpaceOnUse" maskUnits="objectBoundingBox" x="0" y="0" width="1" height="1" fill="white">
            <use xlink:href="#path-81"></use>
        </mask>
        <rect id="path-83" x="11" y="4" width="1" height="1"></rect>
        <mask id="mask-84" maskContentUnits="userSpaceOnUse" maskUnits="objectBoundingBox" x="0" y="0" width="1" height="1" fill="white">
            <use xlink:href="#path-83"></use>
        </mask>
        <rect id="path-85" x="7" y="4" width="3" height="1"></rect>
        <mask id="mask-86" maskContentUnits="userSpaceOnUse" maskUnits="objectBoundingBox" x="0" y="0" width="3" height="1" fill="white">
            <use xlink:href="#path-85"></use>
        </mask>
        <rect id="path-87" x="6" y="5" width="3" height="1"></rect>
        <mask id="mask-88" maskContentUnits="userSpaceOnUse" maskUnits="objectBoundingBox" x="0" y="0" width="3" height="1" fill="white">
            <use xlink:href="#path-87"></use>
        </mask>
        <rect id="path-89" x="5" y="6" width="4" height="3"></rect>
        <mask id="mask-90" maskContentUnits="userSpaceOnUse" maskUnits="objectBoundingBox" x="0" y="0" width="4" height="3" fill="white">
            <use xlink:href="#path-89"></use>
        </mask>
        <rect id="path-91" x="2" y="9" width="7" height="1"></rect>
        <mask id="mask-92" maskContentUnits="userSpaceOnUse" maskUnits="objectBoundingBox" x="0" y="0" width="7" height="1" fill="white">
            <use xlink:href="#path-91"></use>
        </mask>
        <rect id="path-93" x="4" y="7" width="5" height="1"></rect>
        <mask id="mask-94" maskContentUnits="userSpaceOnUse" maskUnits="objectBoundingBox" x="0" y="0" width="5" height="1" fill="white">
            <use xlink:href="#path-93"></use>
        </mask>
        <rect id="path-95" x="3" y="8" width="6" height="1"></rect>
        <mask id="mask-96" maskContentUnits="userSpaceOnUse" maskUnits="objectBoundingBox" x="0" y="0" width="6" height="1" fill="white">
            <use xlink:href="#path-95"></use>
        </mask>
        <rect id="path-97" x="0" y="11" width="8" height="1"></rect>
        <mask id="mask-98" maskContentUnits="userSpaceOnUse" maskUnits="objectBoundingBox" x="0" y="0" width="8" height="1" fill="white">
            <use xlink:href="#path-97"></use>
        </mask>
        <rect id="path-99" x="0" y="12" width="6" height="1"></rect>
        <mask id="mask-100" maskContentUnits="userSpaceOnUse" maskUnits="objectBoundingBox" x="0" y="0" width="6" height="1" fill="white">
            <use xlink:href="#path-99"></use>
        </mask>
        <polygon id="path-101" points="1 14 4 14 4 12 1 12"></polygon>
        <mask id="mask-102" maskContentUnits="userSpaceOnUse" maskUnits="objectBoundingBox" x="0" y="0" width="3" height="2" fill="white">
            <use xlink:href="#path-101"></use>
        </mask>
        <rect id="path-103" x="1" y="10" width="8" height="1"></rect>
        <mask id="mask-104" maskContentUnits="userSpaceOnUse" maskUnits="objectBoundingBox" x="0" y="0" width="8" height="1" fill="white">
            <use xlink:href="#path-103"></use>
        </mask>
        <rect id="path-105" x="13" y="14" width="1" height="1"></rect>
        <mask id="mask-106" maskContentUnits="userSpaceOnUse" maskUnits="objectBoundingBox" x="0" y="0" width="1" height="1" fill="white">
            <use xlink:href="#path-105"></use>
        </mask>
        <rect id="path-107" x="12" y="16" width="1" height="1"></rect>
        <mask id="mask-108" maskContentUnits="userSpaceOnUse" maskUnits="objectBoundingBox" x="0" y="0" width="1" height="1" fill="white">
            <use xlink:href="#path-107"></use>
        </mask>
        <rect id="path-109" x="12" y="18" width="1" height="1"></rect>
        <mask id="mask-110" maskContentUnits="userSpaceOnUse" maskUnits="objectBoundingBox" x="0" y="0" width="1" height="1" fill="white">
            <use xlink:href="#path-109"></use>
        </mask>
        <rect id="path-111" x="38" y="18" width="1" height="1"></rect>
        <mask id="mask-112" maskContentUnits="userSpaceOnUse" maskUnits="objectBoundingBox" x="0" y="0" width="1" height="1" fill="white">
            <use xlink:href="#path-111"></use>
        </mask>
        <rect id="path-113" x="38" y="16" width="1" height="1"></rect>
        <mask id="mask-114" maskContentUnits="userSpaceOnUse" maskUnits="objectBoundingBox" x="0" y="0" width="1" height="1" fill="white">
            <use xlink:href="#path-113"></use>
        </mask>
        <rect id="path-115" x="40" y="10" width="1" height="4"></rect>
        <mask id="mask-116" maskContentUnits="userSpaceOnUse" maskUnits="objectBoundingBox" x="0" y="0" width="1" height="4" fill="white">
            <use xlink:href="#path-115"></use>
        </mask>
        <rect id="path-117" x="41" y="10" width="2" height="3"></rect>
        <mask id="mask-118" maskContentUnits="userSpaceOnUse" maskUnits="objectBoundingBox" x="0" y="0" width="2" height="3" fill="white">
            <use xlink:href="#path-117"></use>
        </mask>
        <rect id="path-119" x="43" y="10" width="1" height="2"></rect>
        <mask id="mask-120" maskContentUnits="userSpaceOnUse" maskUnits="objectBoundingBox" x="0" y="0" width="1" height="2" fill="white">
            <use xlink:href="#path-119"></use>
        </mask>
        <rect id="path-121" x="38" y="10" width="8" height="1"></rect>
        <mask id="mask-122" maskContentUnits="userSpaceOnUse" maskUnits="objectBoundingBox" x="0" y="0" width="8" height="1" fill="white">
            <use xlink:href="#path-121"></use>
        </mask>
        <rect id="path-123" x="38" y="11" width="6" height="1"></rect>
        <mask id="mask-124" maskContentUnits="userSpaceOnUse" maskUnits="objectBoundingBox" x="0" y="0" width="6" height="1" fill="white">
            <use xlink:href="#path-123"></use>
        </mask>
    </defs>
    <g id="Page-1" stroke="none" stroke-width="1" fill="none" fill-rule="evenodd">
        <g id="Artboard-2">
            <g id="Group-3" transform="translate(24.000000, 18.500000) scale(-1, 1) translate(-24.000000, -18.500000) translate(1.000000, 1.000000)">
                <g id="Group-2" transform="translate(38.000000, 11.000000)"></g>
                <path d="M11.5,24.5 L11.5,34.5" id="Line" stroke="#000000" stroke-linecap="square" fill="#000000"></path>
                <path d="M15.5,24.5 L15.5,34.5" id="Line" stroke="#000000" stroke-linecap="square" fill="#000000"></path>
                <path d="M35.5,24.5 L35.5,34.5" id="Line" stroke="#000000" stroke-linecap="square" fill="#000000"></path>
                <path d="M39.5,24.5 L39.5,34.5" id="Line" stroke="#000000" stroke-linecap="square" fill="#000000"></path>
                <g id="Group-2" transform="translate(36.000000, 20.000000)" stroke="#000000" stroke-linecap="square">
                    <path d="M0.5,1.5 L2.5,1.5" id="Line"></path>
                    <path d="M1.5,0.5 L1.5,2.5" id="Line"></path>
                </g>
                <g id="Group-2" transform="translate(32.000000, 20.000000)" stroke="#000000" stroke-linecap="square">
                    <path d="M0.5,1.5 L2.5,1.5" id="Line"></path>
                    <path d="M1.5,0.5 L1.5,2.5" id="Line"></path>
                </g>
                <g id="Group-2" transform="translate(28.000000, 20.000000)" stroke="#000000" stroke-linecap="square">
                    <path d="M0.5,1.5 L2.5,1.5" id="Line"></path>
                    <path d="M1.5,0.5 L1.5,2.5" id="Line"></path>
                </g>
                <g id="Group-2" transform="translate(24.000000, 20.000000)" stroke="#000000" stroke-linecap="square">
                    <path d="M0.5,1.5 L2.5,1.5" id="Line"></path>
                    <path d="M1.5,0.5 L1.5,2.5" id="Line"></path>
                </g>
                <g id="Group-2" transform="translate(20.000000, 20.000000)" stroke="#000000" stroke-linecap="square">
                    <path d="M0.5,1.5 L2.5,1.5" id="Line"></path>
                    <path d="M1.5,0.5 L1.5,2.5" id="Line"></path>
                </g>
                <g id="Group-2" transform="translate(16.000000, 20.000000)" stroke="#000000" stroke-linecap="square">
                    <path d="M0.5,1.5 L2.5,1.5" id="Line"></path>
                    <path d="M1.5,0.5 L1.5,2.5" id="Line"></path>
                </g>
                <g id="Group-2" transform="translate(12.000000, 20.000000)" stroke="#000000" stroke-linecap="square">
                    <path d="M0.5,1.5 L2.5,1.5" id="Line"></path>
                    <path d="M1.5,0.5 L1.5,2.5" id="Line"></path>
                </g>
                <g id="Group-2" transform="translate(14.000000, 22.000000)" stroke="#000000" stroke-linecap="square">
                    <path d="M0.5,1.5 L2.5,1.5" id="Line"></path>
                    <path d="M1.5,0.5 L1.5,1.5" id="Line"></path>
                </g>
                <g id="Group-2" transform="translate(18.000000, 22.000000)" stroke="#000000" stroke-linecap="square">
                    <path d="M0.5,1.5 L2.5,1.5" id="Line"></path>
                    <path d="M1.5,0.5 L1.5,1.5" id="Line"></path>
                </g>
                <g id="Group-2" transform="translate(22.000000, 22.000000)" stroke="#000000" stroke-linecap="square">
                    <path d="M0.5,1.5 L2.5,1.5" id="Line"></path>
                    <path d="M1.5,0.5 L1.5,1.5" id="Line"></path>
                </g>
                <g id="Group-2" transform="translate(26.000000, 22.000000)" stroke="#000000" stroke-linecap="square">
                    <path d="M0.5,1.5 L2.5,1.5" id="Line"></path>
                    <path d="M1.5,0.5 L1.5,1.5" id="Line"></path>
                </g>
                <g id="Group-2" transform="translate(30.000000, 22.000000)" stroke="#000000" stroke-linecap="square">
                    <path d="M0.5,1.5 L2.5,1.5" id="Line"></path>
                    <path d="M1.5,0.5 L1.5,1.5" id="Line"></path>
                </g>
                <g id="Group-2" transform="translate(34.000000, 22.000000)" stroke="#000000" stroke-linecap="square">
                    <path d="M0.5,1.5 L2.5,1.5" id="Line"></path>
                    <path d="M1.5,0.5 L1.5,1.5" id="Line"></path>
                </g>
                <g id="Group-2" transform="translate(37.500000, 13.500000) scale(1, -1) translate(-37.500000, -13.500000) translate(36.000000, 12.000000)" stroke="#000000" stroke-linecap="square">
                    <path d="M0.5,1.5 L2.5,1.5" id="Line"></path>
                    <path d="M1.5,0.5 L1.5,1.5" id="Line"></path>
                </g>
                <g id="Group-2" transform="translate(33.500000, 13.500000) scale(1, -1) translate(-33.500000, -13.500000) translate(32.000000, 12.000000)" stroke="#000000" stroke-linecap="square">
                    <path d="M0.5,1.5 L2.5,1.5" id="Line"></path>
                    <path d="M1.5,0.5 L1.5,1.5" id="Line"></path>
                </g>
                <g id="Group-2" transform="translate(29.500000, 13.500000) scale(1, -1) translate(-29.500000, -13.500000) translate(28.000000, 12.000000)" stroke="#000000" stroke-linecap="square">
                    <path d="M0.5,1.5 L2.5,1.5" id="Line"></path>
                    <path d="M1.5,0.5 L1.5,1.5" id="Line"></path>
                </g>
                <g id="Group-2" transform="translate(25.500000, 13.500000) scale(1, -1) translate(-25.500000, -13.500000) translate(24.000000, 12.000000)" stroke="#000000" stroke-linecap="square">
                    <path d="M0.5,1.5 L2.5,1.5" id="Line"></path>
                    <path d="M1.5,0.5 L1.5,1.5" id="Line"></path>
                </g>
                <g id="Group-2" transform="translate(21.500000, 13.500000) scale(1, -1) translate(-21.500000, -13.500000) translate(20.000000, 12.000000)" stroke="#000000" stroke-linecap="square">
                    <path d="M0.5,1.5 L2.5,1.5" id="Line"></path>
                    <path d="M1.5,0.5 L1.5,1.5" id="Line"></path>
                </g>
                <g id="Group-2" transform="translate(17.500000, 13.500000) scale(1, -1) translate(-17.500000, -13.500000) translate(16.000000, 12.000000)" stroke="#000000" stroke-linecap="square">
                    <path d="M0.5,1.5 L2.5,1.5" id="Line"></path>
                    <path d="M1.5,0.5 L1.5,1.5" id="Line"></path>
                </g>
                <path d="M38.5,12.5 L39.5,12.5" id="Line" stroke="#000000" stroke-linecap="square"></path>
                <path d="M39.5,11.5 L39.5,13.5" id="Line" stroke="#000000" stroke-linecap="square"></path>
                <g id="Group-2" transform="translate(11.500000, 15.500000) scale(-1, 1) translate(-11.500000, -15.500000) translate(10.000000, 14.000000)" stroke="#000000" stroke-linecap="square">
                    <path d="M0.5,1.5 L1.5,1.5" id="Line"></path>
                    <path d="M1.5,0.5 L1.5,2.5" id="Line"></path>
                </g>
                <g id="Group-2" transform="translate(11.500000, 19.500000) scale(-1, 1) translate(-11.500000, -19.500000) translate(10.000000, 18.000000)" stroke="#000000" stroke-linecap="square">
                    <path d="M0.5,1.5 L1.5,1.5" id="Line"></path>
                    <path d="M1.5,0.5 L1.5,2.5" id="Line"></path>
                </g>
                <g id="Group-2" transform="translate(38.000000, 18.000000)" stroke="#000000" stroke-linecap="square">
                    <path d="M0.5,1.5 L1.5,1.5" id="Line"></path>
                    <path d="M1.5,0.5 L1.5,2.5" id="Line"></path>
                </g>
                <g id="Group-2" transform="translate(38.000000, 22.000000)" stroke="#000000" stroke-linecap="square">
                    <path d="M0.5,1.5 L1.5,1.5" id="Line"></path>
                    <path d="M1.5,0.5 L1.5,2.5" id="Line"></path>
                </g>
                <g id="Group-2" transform="translate(38.000000, 14.000000)" stroke="#000000" stroke-linecap="square">
                    <path d="M0.5,1.5 L1.5,1.5" id="Line"></path>
                    <path d="M1.5,0.5 L1.5,2.5" id="Line"></path>
                </g>
                <g id="Group-2" transform="translate(11.500000, 23.500000) scale(-1, 1) translate(-11.500000, -23.500000) translate(10.000000, 22.000000)" stroke="#000000" stroke-linecap="square">
                    <path d="M0.5,1.5 L1.5,1.5" id="Line"></path>
                    <path d="M1.5,0.5 L1.5,2.5" id="Line"></path>
                </g>
                <use id="Rectangle-2" stroke="#000000" mask="url(#mask-2)" stroke-width="2" fill="#000000" xlink:href="#path-1"></use>
                <use id="Rectangle-2" stroke="#000000" mask="url(#mask-4)" stroke-width="2" fill="#000000" xlink:href="#path-3"></use>
                <use id="Rectangle-2" stroke="#000000" mask="url(#mask-6)" stroke-width="2" fill="#000000" xlink:href="#path-5"></use>
                <use id="Rectangle-2" stroke="#000000" mask="url(#mask-8)" stroke-width="2" fill="#000000" xlink:href="#path-7"></use>
                <use id="Rectangle-2" stroke="#000000" mask="url(#mask-10)" stroke-width="2" fill="#000000" xlink:href="#path-9"></use>
                <use id="Rectangle-2" stroke="#000000" mask="url(#mask-12)" stroke-width="2" fill="#000000" xlink:href="#path-11"></use>
                <use id="Rectangle-2" stroke="#000000" mask="url(#mask-14)" stroke-width="2" fill="#000000" xlink:href="#path-13"></use>
                <use id="Rectangle-2" stroke="#000000" mask="url(#mask-16)" stroke-width="2" fill="#000000" xlink:href="#path-15"></use>
                <use id="Rectangle-2" stroke="#000000" mask="url(#mask-18)" stroke-width="2" fill="#000000" xlink:href="#path-17"></use>
                <use id="Rectangle-2" stroke="#000000" mask="url(#mask-20)" stroke-width="2" fill="#000000" xlink:href="#path-19"></use>
                <use id="Rectangle-2" stroke="#000000" mask="url(#mask-22)" stroke-width="2" fill="#000000" xlink:href="#path-21"></use>
                <use id="Rectangle-2" stroke="#000000" mask="url(#mask-24)" stroke-width="2" fill="#000000" xlink:href="#path-23"></use>
                <use id="Rectangle-2" stroke="#000000" mask="url(#mask-26)" stroke-width="2" fill="#000000" xlink:href="#path-25"></use>
                <use id="Rectangle-2" stroke="#000000" mask="url(#mask-28)" stroke-width="2" fill="#000000" xlink:href="#path-27"></use>
                <use id="Rectangle-2" stroke="#000000" mask="url(#mask-30)" stroke-width="2" fill="#000000" xlink:href="#path-29"></use>
                <use id="Rectangle-2" stroke="#000000" mask="url(#mask-32)" stroke-width="2" fill="#000000" xlink:href="#path-31"></use>
                <use id="Rectangle-2" stroke="#000000" mask="url(#mask-34)" stroke-width="2" fill="#000000" xlink:href="#path-33"></use>
                <use id="Rectangle-2" stroke="#000000" mask="url(#mask-36)" stroke-width="2" fill="#000000" xlink:href="#path-35"></use>
                <use id="Rectangle-2" stroke="#000000" mask="url(#mask-38)" stroke-width="2" fill="#000000" xlink:href="#path-37"></use>
                <use id="Rectangle-2" stroke="#000000" mask="url(#mask-40)" stroke-width="2" fill="#000000" xlink:href="#path-39"></use>
                <use id="Rectangle-2" stroke="#000000" mask="url(#mask-42)" stroke-width="2" fill="#000000" xlink:href="#path-41"></use>
                <use id="Rectangle-2" stroke="#000000" mask="url(#mask-44)" stroke-width="2" fill="#000000" xlink:href="#path-43"></use>
                <use id="Rectangle-2" stroke="#000000" mask="url(#mask-46)" stroke-width="2" fill="#000000" xlink:href="#path-45"></use>
                <use id="Rectangle-2" stroke="#000000" mask="url(#mask-48)" stroke-width="2" fill="#000000" xlink:href="#path-47"></use>
                <use id="Rectangle-2" stroke="#000000" mask="url(#mask-50)" stroke-width="2" fill="#000000" xlink:href="#path-49"></use>
                <use id="Rectangle-2" stroke="#000000" mask="url(#mask-52)" stroke-width="2" fill="#000000" xlink:href="#path-51"></use>
                <use id="Rectangle-2" stroke="#000000" mask="url(#mask-54)" stroke-width="2" fill="#000000" xlink:href="#path-53"></use>
                <use id="Rectangle-2" stroke="#000000" mask="url(#mask-56)" stroke-width="2" fill="#000000" xlink:href="#path-55"></use>
                <use id="Rectangle-2" stroke="#000000" mask="url(#mask-58)" stroke-width="2" fill="#000000" xlink:href="#path-57"></use>
                <use id="Rectangle-2" stroke="#000000" mask="url(#mask-60)" stroke-width="2" fill="#000000" xlink:href="#path-59"></use>
                <use id="Rectangle-2" stroke="#000000" mask="url(#mask-62)" stroke-width="2" fill="#000000" xlink:href="#path-61"></use>
                <use id="Rectangle-2" stroke="#000000" mask="url(#mask-64)" stroke-width="2" fill="#000000" xlink:href="#path-63"></use>
                <use id="Rectangle-2" stroke="#000000" mask="url(#mask-66)" stroke-width="2" fill="#000000" xlink:href="#path-65"></use>
                <use id="Rectangle-2" stroke="#000000" mask="url(#mask-68)" stroke-width="2" fill="#000000" xlink:href="#path-67"></use>
                <use id="Rectangle-2" stroke="#000000" mask="url(#mask-70)" stroke-width="2" fill="#000000" xlink:href="#path-69"></use>
                <use id="Rectangle-2" stroke="#000000" mask="url(#mask-72)" stroke-width="2" fill="#000000" xlink:href="#path-71"></use>
                <use id="Rectangle-2" stroke="#000000" mask="url(#mask-74)" stroke-width="2" fill="#000000" xlink:href="#path-73"></use>
                <use id="Rectangle-2" stroke="#000000" mask="url(#mask-76)" stroke-width="2" fill="#000000" xlink:href="#path-75"></use>
                <use id="Rectangle-2" stroke="#000000" mask="url(#mask-78)" stroke-width="2" fill="#000000" xlink:href="#path-77"></use>
                <use id="Rectangle-2" stroke="#000000" mask="url(#mask-80)" stroke-width="2" fill="#000000" xlink:href="#path-79"></use>
                <use id="Rectangle-2" stroke="#000000" mask="url(#mask-82)" stroke-width="2" fill="#000000" xlink:href="#path-81"></use>
                <use id="Rectangle-2" stroke="#000000" mask="url(#mask-84)" stroke-width="2" fill="#000000" xlink:href="#path-83"></use>
                <use id="Rectangle-2" stroke="#000000" mask="url(#mask-86)" stroke-width="2" fill="#000000" xlink:href="#path-85"></use>
                <use id="Rectangle-2" stroke="#000000" mask="url(#mask-88)" stroke-width="2" fill="#000000" xlink:href="#path-87"></use>
                <use id="Rectangle-2" stroke="#000000" mask="url(#mask-90)" stroke-width="2" fill="#000000" xlink:href="#path-89"></use>
                <use id="Rectangle-2" stroke="#000000" mask="url(#mask-92)" stroke-width="2" fill="#000000" xlink:href="#path-91"></use>
                <use id="Rectangle-2" stroke="#000000" mask="url(#mask-94)" stroke-width="2" fill="#000000" xlink:href="#path-93"></use>
                <use id="Rectangle-2" stroke="#000000" mask="url(#mask-96)" stroke-width="2" fill="#000000" xlink:href="#path-95"></use>
                <use id="Rectangle-2" stroke="#000000" mask="url(#mask-98)" stroke-width="2" fill="#000000" xlink:href="#path-97"></use>
                <use id="Rectangle-2" stroke="#000000" mask="url(#mask-100)" stroke-width="2" fill="#000000" xlink:href="#path-99"></use>
                <use id="Rectangle-2" stroke="#000000" mask="url(#mask-102)" stroke-width="2" fill="#000000" xlink:href="#path-101"></use>
                <use id="Rectangle-2" stroke="#000000" mask="url(#mask-104)" stroke-width="2" fill="#000000" xlink:href="#path-103"></use>
                <use id="Rectangle-2" stroke="#000000" mask="url(#mask-106)" stroke-width="2" fill="#000000" xlink:href="#path-105"></use>
                <use id="Rectangle-2" stroke="#000000" mask="url(#mask-108)" stroke-width="2" fill="#000000" xlink:href="#path-107"></use>
                <use id="Rectangle-2" stroke="#000000" mask="url(#mask-110)" stroke-width="2" fill="#000000" xlink:href="#path-109"></use>
                <use id="Rectangle-2" stroke="#000000" mask="url(#mask-112)" stroke-width="2" fill="#000000" xlink:href="#path-111"></use>
                <use id="Rectangle-2" stroke="#000000" mask="url(#mask-114)" stroke-width="2" fill="#000000" xlink:href="#path-113"></use>
                <use id="Rectangle-3" stroke="#000000" mask="url(#mask-116)" stroke-width="2" fill="#000000" xlink:href="#path-115"></use>
                <use id="Rectangle-3" stroke="#000000" mask="url(#mask-118)" stroke-width="2" fill="#000000" xlink:href="#path-117"></use>
                <use id="Rectangle-3" stroke="#000000" mask="url(#mask-120)" stroke-width="2" fill="#000000" xlink:href="#path-119"></use>
                <use id="Rectangle-3" stroke="#000000" mask="url(#mask-122)" stroke-width="2" fill="#000000" xlink:href="#path-121"></use>
                <use id="Rectangle-3" stroke="#000000" mask="url(#mask-124)" stroke-width="2" fill="#000000" xlink:href="#path-123"></use>
                <g id="Group-2" transform="translate(12.000000, 16.000000)" stroke="#000000" stroke-linecap="square">
                    <path d="M0.5,1.5 L2.5,1.5" id="Line"></path>
                    <path d="M1.5,0.5 L1.5,2.5" id="Line"></path>
                </g>
                <g id="Group-2" transform="translate(14.000000, 18.000000)" stroke="#000000" stroke-linecap="square">
                    <path d="M0.5,1.5 L2.5,1.5" id="Line"></path>
                    <path d="M1.5,0.5 L1.5,2.5" id="Line"></path>
                </g>
                <g id="Group-2" transform="translate(18.000000, 18.000000)" stroke="#000000" stroke-linecap="square">
                    <path d="M0.5,1.5 L2.5,1.5" id="Line"></path>
                    <path d="M1.5,0.5 L1.5,2.5" id="Line"></path>
                </g>
                <g id="Group-2" transform="translate(22.000000, 18.000000)" stroke="#000000" stroke-linecap="square">
                    <path d="M0.5,1.5 L2.5,1.5" id="Line"></path>
                    <path d="M1.5,0.5 L1.5,2.5" id="Line"></path>
                </g>
                <g id="Group-2" transform="translate(26.000000, 18.000000)" stroke="#000000" stroke-linecap="square">
                    <path d="M0.5,1.5 L2.5,1.5" id="Line"></path>
                    <path d="M1.5,0.5 L1.5,2.5" id="Line"></path>
                </g>
                <g id="Group-2" transform="translate(30.000000, 18.000000)" stroke="#000000" stroke-linecap="square">
                    <path d="M0.5,1.5 L2.5,1.5" id="Line"></path>
                    <path d="M1.5,0.5 L1.5,2.5" id="Line"></path>
                </g>
                <g id="Group-2" transform="translate(34.000000, 18.000000)" stroke="#000000" stroke-linecap="square">
                    <path d="M0.5,1.5 L2.5,1.5" id="Line"></path>
                    <path d="M1.5,0.5 L1.5,2.5" id="Line"></path>
                </g>
                <g id="Group-2" transform="translate(36.000000, 16.000000)" stroke="#000000" stroke-linecap="square">
                    <path d="M0.5,1.5 L2.5,1.5" id="Line"></path>
                    <path d="M1.5,0.5 L1.5,2.5" id="Line"></path>
                </g>
                <g id="Group-2" transform="translate(32.000000, 16.000000)" stroke="#000000" stroke-linecap="square">
                    <path d="M0.5,1.5 L2.5,1.5" id="Line"></path>
                    <path d="M1.5,0.5 L1.5,2.5" id="Line"></path>
                </g>
                <g id="Group-2" transform="translate(28.000000, 16.000000)" stroke="#000000" stroke-linecap="square">
                    <path d="M0.5,1.5 L2.5,1.5" id="Line"></path>
                    <path d="M1.5,0.5 L1.5,2.5" id="Line"></path>
                </g>
                <g id="Group-2" transform="translate(24.000000, 16.000000)" stroke="#000000" stroke-linecap="square">
                    <path d="M0.5,1.5 L2.5,1.5" id="Line"></path>
                    <path d="M1.5,0.5 L1.5,2.5" id="Line"></path>
                </g>
                <g id="Group-2" transform="translate(20.000000, 16.000000)" stroke="#000000" stroke-linecap="square">
                    <path d="M0.5,1.5 L2.5,1.5" id="Line"></path>
                    <path d="M1.5,0.5 L1.5,2.5" id="Line"></path>
                </g>
                <g id="Group-2" transform="translate(16.000000, 16.000000)" stroke="#000000" stroke-linecap="square">
                    <path d="M0.5,1.5 L2.5,1.5" id="Line"></path>
                    <path d="M1.5,0.5 L1.5,2.5" id="Line"></path>
                </g>
                <g id="Group-2" transform="translate(14.000000, 14.000000)" stroke="#000000" stroke-linecap="square">
                    <path d="M0.5,1.5 L2.5,1.5" id="Line"></path>
                    <path d="M1.5,0.5 L1.5,2.5" id="Line"></path>
                </g>
                <g id="Group-2" transform="translate(18.000000, 14.000000)" stroke="#000000" stroke-linecap="square">
                    <path d="M0.5,1.5 L2.5,1.5" id="Line"></path>
                    <path d="M1.5,0.5 L1.5,2.5" id="Line"></path>
                </g>
                <g id="Group-2" transform="translate(22.000000, 14.000000)" stroke="#000000" stroke-linecap="square">
                    <path d="M0.5,1.5 L2.5,1.5" id="Line"></path>
                    <path d="M1.5,0.5 L1.5,2.5" id="Line"></path>
                </g>
                <g id="Group-2" transform="translate(26.000000, 14.000000)" stroke="#000000" stroke-linecap="square">
                    <path d="M0.5,1.5 L2.5,1.5" id="Line"></path>
                    <path d="M1.5,0.5 L1.5,2.5" id="Line"></path>
                </g>
                <g id="Group-2" transform="translate(30.000000, 14.000000)" stroke="#000000" stroke-linecap="square">
                    <path d="M0.5,1.5 L2.5,1.5" id="Line"></path>
                    <path d="M1.5,0.5 L1.5,2.5" id="Line"></path>
                </g>
                <g id="Group-2" transform="translate(34.000000, 14.000000)" stroke="#000000" stroke-linecap="square">
                    <path d="M0.5,1.5 L2.5,1.5" id="Line"></path>
                    <path d="M1.5,0.5 L1.5,2.5" id="Line"></path>
                </g>
            </g>
        </g>
    </g>
</svg>