<?xml version="1.0" encoding="UTF-8"?>
<svg width="27px" height="27px" viewBox="0 0 27 27" version="1.1" xmlns="http://www.w3.org/2000/svg" xmlns:xlink="http://www.w3.org/1999/xlink">
    <!-- Generator: Sketch 41 (35326) - http://www.bohemiancoding.com/sketch -->
    <title>America Copy</title>
    <desc>Created with Sketch.</desc>
    <defs></defs>
    <g id="Page-1" stroke="none" stroke-width="1" fill="none" fill-rule="evenodd">
        <g id="America-Copy">
            <g id="Group" transform="translate(13.500000, 13.500000) scale(1, -1) translate(-13.500000, -13.500000) translate(0.000000, 1.000000)">
                <g id="Group-2" transform="translate(18.000000, 6.000000)" fill="#000000">
                    <rect id="Rectangle-6" x="1" y="0" width="1" height="3"></rect>
                    <rect id="Rectangle-6" x="0" y="1" width="3" height="1"></rect>
                </g>
                <g id="Group-2" transform="translate(18.000000, 10.000000)" fill="#000000">
                    <rect id="Rectangle-6" x="1" y="0" width="1" height="3"></rect>
                    <rect id="Rectangle-6" x="0" y="1" width="3" height="1"></rect>
                </g>
                <g id="Group-2" transform="translate(14.000000, 2.000000)" fill="#000000">
                    <rect id="Rectangle-6" x="1" y="0" width="1" height="3"></rect>
                    <rect id="Rectangle-6" x="0" y="1" width="3" height="1"></rect>
                </g>
                <g id="Group-2" transform="translate(14.000000, 6.000000)" fill="#000000">
                    <rect id="Rectangle-6" x="1" y="0" width="1" height="3"></rect>
                    <rect id="Rectangle-6" x="0" y="1" width="3" height="1"></rect>
                </g>
                <g id="Group-2" transform="translate(14.000000, 10.000000)" fill="#000000">
                    <rect id="Rectangle-6" x="1" y="0" width="1" height="3"></rect>
                    <rect id="Rectangle-6" x="0" y="1" width="3" height="1"></rect>
                </g>
                <g id="Group-2" transform="translate(10.000000, 2.000000)" fill="#000000">
                    <rect id="Rectangle-6" x="1" y="0" width="1" height="3"></rect>
                    <rect id="Rectangle-6" x="0" y="1" width="3" height="1"></rect>
                </g>
                <g id="Group-2" transform="translate(10.000000, 6.000000)" fill="#000000">
                    <rect id="Rectangle-6" x="1" y="0" width="1" height="3"></rect>
                    <rect id="Rectangle-6" x="0" y="1" width="3" height="1"></rect>
                </g>
                <g id="Group-2" transform="translate(10.000000, 10.000000)" fill="#000000">
                    <rect id="Rectangle-6" x="1" y="0" width="1" height="3"></rect>
                    <rect id="Rectangle-6" x="0" y="1" width="3" height="1"></rect>
                </g>
                <g id="Group-2" transform="translate(6.000000, 6.000000)" fill="#000000">
                    <rect id="Rectangle-6" x="1" y="0" width="1" height="3"></rect>
                    <rect id="Rectangle-6" x="0" y="1" width="3" height="1"></rect>
                </g>
                <g id="Group-2" transform="translate(6.000000, 10.000000)" fill="#000000">
                    <rect id="Rectangle-6" x="1" y="0" width="1" height="3"></rect>
                    <rect id="Rectangle-6" x="0" y="1" width="3" height="1"></rect>
                </g>
                <g id="Group-2" transform="translate(20.000000, 8.000000)" fill="#000000">
                    <rect id="Rectangle-6" x="1" y="0" width="1" height="3"></rect>
                    <rect id="Rectangle-6" x="0" y="1" width="3" height="1"></rect>
                </g>
                <g id="Group-2" transform="translate(22.000000, 10.000000)" fill="#000000">
                    <rect id="Rectangle-6" x="1" y="0" width="1" height="3"></rect>
                    <rect id="Rectangle-6" x="0" y="1" width="3" height="1"></rect>
                </g>
                <g id="Group-2" transform="translate(16.000000, 4.000000)" fill="#000000">
                    <rect id="Rectangle-6" x="1" y="0" width="1" height="3"></rect>
                    <rect id="Rectangle-6" x="0" y="1" width="3" height="1"></rect>
                </g>
                <g id="Group-2" transform="translate(16.000000, 8.000000)" fill="#000000">
                    <rect id="Rectangle-6" x="1" y="0" width="1" height="3"></rect>
                    <rect id="Rectangle-6" x="0" y="1" width="3" height="1"></rect>
                </g>
                <g id="Group-2" transform="translate(16.000000, 12.000000)" fill="#000000">
                    <rect id="Rectangle-6" x="1" y="0" width="1" height="2"></rect>
                    <rect id="Rectangle-6" x="0" y="1" width="3" height="1"></rect>
                </g>
                <g id="Group-2" transform="translate(20.000000, 12.000000)" fill="#000000">
                    <rect id="Rectangle-6" x="1" y="0" width="1" height="2"></rect>
                    <rect id="Rectangle-6" x="0" y="1" width="3" height="1"></rect>
                </g>
                <g id="Group-2" transform="translate(24.000000, 12.000000)" fill="#000000">
                    <rect id="Rectangle-6" x="1" y="0" width="1" height="2"></rect>
                    <rect id="Rectangle-6" x="0" y="1" width="3" height="1"></rect>
                </g>
                <g id="Group-2" transform="translate(12.000000, 0.000000)" fill="#000000">
                    <rect id="Rectangle-6" x="1" y="0" width="1" height="4"></rect>
                    <rect id="Rectangle-6" x="0" y="1" width="3" height="1"></rect>
                </g>
                <g id="Group-2" transform="translate(12.000000, 4.000000)" fill="#000000">
                    <rect id="Rectangle-6" x="1" y="0" width="1" height="3"></rect>
                    <rect id="Rectangle-6" x="0" y="1" width="3" height="1"></rect>
                </g>
                <g id="Group-2" transform="translate(12.000000, 8.000000)" fill="#000000">
                    <rect id="Rectangle-6" x="1" y="0" width="1" height="3"></rect>
                    <rect id="Rectangle-6" x="0" y="1" width="3" height="1"></rect>
                </g>
                <g id="Group-2" transform="translate(12.000000, 11.000000)" fill="#000000">
                    <rect id="Rectangle-6" x="1" y="0" width="1" height="3"></rect>
                    <rect id="Rectangle-6" x="0" y="2" width="3" height="1"></rect>
                </g>
                <g id="Group-2" transform="translate(8.000000, 4.000000)" fill="#000000">
                    <rect id="Rectangle-6" x="1" y="0" width="1" height="3"></rect>
                    <rect id="Rectangle-6" x="0" y="1" width="3" height="1"></rect>
                </g>
                <g id="Group-2" transform="translate(8.000000, 8.000000)" fill="#000000">
                    <rect id="Rectangle-6" x="1" y="0" width="1" height="3"></rect>
                    <rect id="Rectangle-6" x="0" y="1" width="3" height="1"></rect>
                </g>
                <g id="Group-2" transform="translate(8.000000, 12.000000)" fill="#000000">
                    <rect id="Rectangle-6" x="1" y="0" width="1" height="2"></rect>
                    <rect id="Rectangle-6" x="0" y="1" width="3" height="1"></rect>
                </g>
                <g id="Group-2" transform="translate(4.000000, 12.000000)" fill="#000000">
                    <rect id="Rectangle-6" x="1" y="0" width="1" height="2"></rect>
                    <rect id="Rectangle-6" x="0" y="1" width="3" height="1"></rect>
                </g>
                <g id="Group-2" transform="translate(0.000000, 12.000000)" fill="#000000">
                    <rect id="Rectangle-6" x="1" y="0" width="1" height="2"></rect>
                    <rect id="Rectangle-6" x="0" y="1" width="3" height="1"></rect>
                </g>
                <g id="Group-2" transform="translate(4.000000, 8.000000)" fill="#000000">
                    <rect id="Rectangle-6" x="1" y="0" width="1" height="3"></rect>
                    <rect id="Rectangle-6" x="0" y="1" width="3" height="1"></rect>
                </g>
                <g id="Group-2" transform="translate(2.000000, 10.000000)" fill="#000000">
                    <rect id="Rectangle-6" x="1" y="0" width="1" height="3"></rect>
                    <rect id="Rectangle-6" x="0" y="1" width="3" height="1"></rect>
                </g>
                <path d="M7.5,14.5 L7.5,24.5" id="Line" stroke="#000000" stroke-linecap="square" transform="translate(7.500000, 19.500000) scale(1, -1) translate(-7.500000, -19.500000) "></path>
                <path d="M11.5,14.5 L11.5,24.5" id="Line" stroke="#000000" stroke-linecap="square" transform="translate(11.500000, 19.500000) scale(1, -1) translate(-11.500000, -19.500000) "></path>
                <path d="M15.5,14.5 L15.5,24.5" id="Line" stroke="#000000" stroke-linecap="square" transform="translate(15.500000, 19.500000) scale(1, -1) translate(-15.500000, -19.500000) "></path>
                <path d="M19.5,14.5 L19.5,24.5" id="Line" stroke="#000000" stroke-linecap="square" transform="translate(19.500000, 19.500000) scale(1, -1) translate(-19.500000, -19.500000) "></path>
            </g>
        </g>
    </g>
</svg>