<svg width="27" height="27" viewBox="0 0 27 27" version="1.1" xmlns="http://www.w3.org/2000/svg">
  <g id="Group" transform="translate(1.000000, 1.000000)">
    <g id="Group-2" transform="translate(22.000000, 13.000000) scale(1, -1) translate(-22.000000, -13.000000) translate(21.000000, 11.000000)" fill="#000000">
        <rect id="Rectangle-6" x="1" y="0" width="1" height="4"></rect>
        <rect id="Rectangle-6" x="0" y="1" width="2" height="1"></rect>
    </g>
    <g id="Group-2" transform="translate(18.500000, 17.500000) scale(1, -1) translate(-18.500000, -17.500000) translate(17.000000, 16.000000)" fill="#000000">
        <rect id="Rectangle-6" x="1" y="0" width="1" height="3"></rect>
        <rect id="Rectangle-6" x="0" y="1" width="3" height="1"></rect>
    </g>
    <g id="Group-2" transform="translate(18.500000, 13.500000) scale(1, -1) translate(-18.500000, -13.500000) translate(17.000000, 12.000000)" fill="#000000">
        <rect id="Rectangle-6" x="1" y="0" width="1" height="3"></rect>
        <rect id="Rectangle-6" x="0" y="1" width="3" height="1"></rect>
    </g>
    <g id="Group-2" transform="translate(14.500000, 21.500000) scale(1, -1) translate(-14.500000, -21.500000) translate(13.000000, 20.000000)" fill="#000000">
        <rect id="Rectangle-6" x="1" y="0" width="1" height="3"></rect>
        <rect id="Rectangle-6" x="0" y="1" width="3" height="1"></rect>
    </g>
    <g id="Group-2" transform="translate(14.500000, 17.500000) scale(1, -1) translate(-14.500000, -17.500000) translate(13.000000, 16.000000)" fill="#000000">
        <rect id="Rectangle-6" x="1" y="0" width="1" height="3"></rect>
        <rect id="Rectangle-6" x="0" y="1" width="3" height="1"></rect>
    </g>
    <g id="Group-2" transform="translate(14.500000, 13.500000) scale(1, -1) translate(-14.500000, -13.500000) translate(13.000000, 12.000000)" fill="#000000">
        <rect id="Rectangle-6" x="1" y="0" width="1" height="3"></rect>
        <rect id="Rectangle-6" x="0" y="1" width="3" height="1"></rect>
    </g>
    <g id="Group-2" transform="translate(10.500000, 21.500000) scale(1, -1) translate(-10.500000, -21.500000) translate(9.000000, 20.000000)" fill="#000000">
        <rect id="Rectangle-6" x="1" y="0" width="1" height="3"></rect>
        <rect id="Rectangle-6" x="0" y="1" width="3" height="1"></rect>
    </g>
    <g id="Group-2" transform="translate(10.500000, 17.500000) scale(1, -1) translate(-10.500000, -17.500000) translate(9.000000, 16.000000)" fill="#000000">
        <rect id="Rectangle-6" x="1" y="0" width="1" height="3"></rect>
        <rect id="Rectangle-6" x="0" y="1" width="3" height="1"></rect>
    </g>
    <g id="Group-2" transform="translate(10.500000, 13.500000) scale(1, -1) translate(-10.500000, -13.500000) translate(9.000000, 12.000000)" fill="#000000">
        <rect id="Rectangle-6" x="1" y="0" width="1" height="3"></rect>
        <rect id="Rectangle-6" x="0" y="1" width="3" height="1"></rect>
    </g>
    <g id="Group-2" transform="translate(6.500000, 17.500000) scale(1, -1) translate(-6.500000, -17.500000) translate(5.000000, 16.000000)" fill="#000000">
        <rect id="Rectangle-6" x="1" y="0" width="1" height="3"></rect>
        <rect id="Rectangle-6" x="0" y="1" width="3" height="1"></rect>
    </g>
    <g id="Group-2" transform="translate(6.500000, 13.500000) scale(1, -1) translate(-6.500000, -13.500000) translate(5.000000, 12.000000)" fill="#000000">
        <rect id="Rectangle-6" x="1" y="0" width="1" height="3"></rect>
        <rect id="Rectangle-6" x="0" y="1" width="3" height="1"></rect>
    </g>
    <g id="Group-2" transform="translate(3.000000, 13.000000) scale(1, -1) translate(-3.000000, -13.000000) translate(2.000000, 11.000000)" fill="#000000">
        <rect id="Rectangle-6" x="0" y="0" width="1" height="4"></rect>
        <rect id="Rectangle-6" x="0" y="1" width="2" height="1"></rect>
    </g>
    <g id="Group-2" transform="translate(20.500000, 15.500000) scale(1, -1) translate(-20.500000, -15.500000) translate(19.000000, 14.000000)" fill="#000000">
        <rect id="Rectangle-6" x="1" y="0" width="1" height="3"></rect>
        <rect id="Rectangle-6" x="0" y="1" width="3" height="1"></rect>
    </g>
    <g id="Group-2" transform="translate(23.500000, 11.500000) scale(1, -1) translate(-23.500000, -11.500000) translate(22.000000, 10.000000)" fill="#000000">
        <rect id="Rectangle-6" x="1" y="0" width="1" height="3"></rect>
        <rect id="Rectangle-6" x="0" y="1" width="3" height="1"></rect>
    </g>
    <g id="Group-2" transform="translate(1.500000, 11.500000) scale(1, -1) translate(-1.500000, -11.500000) translate(0.000000, 10.000000)" fill="#000000">
        <rect id="Rectangle-6" x="1" y="0" width="1" height="3"></rect>
        <rect id="Rectangle-6" x="0" y="1" width="3" height="1"></rect>
    </g>
    <g id="Group-2" transform="translate(20.000000, 12.000000) scale(1, -1) translate(-20.000000, -12.000000) translate(18.000000, 11.000000)" fill="#000000">
        <rect id="Rectangle-6" x="2" y="0" width="2" height="2"></rect>
        <rect id="Rectangle-6" x="0" y="1" width="4" height="1"></rect>
    </g>
    <g id="Group-2" transform="translate(16.500000, 19.500000) scale(1, -1) translate(-16.500000, -19.500000) translate(15.000000, 18.000000)" fill="#000000">
        <rect id="Rectangle-6" x="1" y="0" width="1" height="3"></rect>
        <rect id="Rectangle-6" x="0" y="1" width="3" height="1"></rect>
    </g>
    <g id="Group-2" transform="translate(16.500000, 15.500000) scale(1, -1) translate(-16.500000, -15.500000) translate(15.000000, 14.000000)" fill="#000000">
        <rect id="Rectangle-6" x="1" y="0" width="1" height="3"></rect>
        <rect id="Rectangle-6" x="0" y="1" width="3" height="1"></rect>
    </g>
    <g id="Group-2" transform="translate(16.500000, 12.000000) scale(1, -1) translate(-16.500000, -12.000000) translate(15.000000, 11.000000)" fill="#000000">
        <rect id="Rectangle-6" x="1" y="0" width="1" height="2"></rect>
        <rect id="Rectangle-6" x="0" y="1" width="3" height="1"></rect>
    </g>
    <g id="Group-2" transform="translate(12.500000, 23.000000) scale(1, -1) translate(-12.500000, -23.000000) translate(11.000000, 21.000000)" fill="#000000">
        <rect id="Rectangle-6" x="1" y="0" width="1" height="4"></rect>
        <rect id="Rectangle-6" x="0" y="1" width="3" height="1"></rect>
    </g>
    <g id="Group-2" transform="translate(12.500000, 19.500000) scale(1, -1) translate(-12.500000, -19.500000) translate(11.000000, 18.000000)" fill="#000000">
        <rect id="Rectangle-6" x="1" y="0" width="1" height="3"></rect>
        <rect id="Rectangle-6" x="0" y="1" width="3" height="1"></rect>
    </g>
    <g id="Group-2" transform="translate(12.500000, 15.500000) scale(1, -1) translate(-12.500000, -15.500000) translate(11.000000, 14.000000)" fill="#000000">
        <rect id="Rectangle-6" x="1" y="0" width="1" height="3"></rect>
        <rect id="Rectangle-6" x="0" y="1" width="3" height="1"></rect>
    </g>
    <g id="Group-2" transform="translate(12.500000, 12.500000) scale(1, -1) translate(-12.500000, -12.500000) translate(11.000000, 11.000000)" fill="#000000">
        <rect id="Rectangle-6" x="1" y="0" width="1" height="3"></rect>
        <rect id="Rectangle-6" x="0" y="2" width="3" height="1"></rect>
    </g>
    <g id="Group-2" transform="translate(8.500000, 19.500000) scale(1, -1) translate(-8.500000, -19.500000) translate(7.000000, 18.000000)" fill="#000000">
        <rect id="Rectangle-6" x="1" y="0" width="1" height="3"></rect>
        <rect id="Rectangle-6" x="0" y="1" width="3" height="1"></rect>
    </g>
    <g id="Group-2" transform="translate(8.500000, 15.500000) scale(1, -1) translate(-8.500000, -15.500000) translate(7.000000, 14.000000)" fill="#000000">
        <rect id="Rectangle-6" x="1" y="0" width="1" height="3"></rect>
        <rect id="Rectangle-6" x="0" y="1" width="3" height="1"></rect>
    </g>
    <g id="Group-2" transform="translate(8.500000, 12.000000) scale(1, -1) translate(-8.500000, -12.000000) translate(7.000000, 11.000000)" fill="#000000">
        <rect id="Rectangle-6" x="1" y="0" width="1" height="2"></rect>
        <rect id="Rectangle-6" x="0" y="1" width="3" height="1"></rect>
    </g>
    <g id="Group-2" transform="translate(4.500000, 15.500000) scale(1, -1) translate(-4.500000, -15.500000) translate(3.000000, 14.000000)" fill="#000000">
        <rect id="Rectangle-6" x="1" y="0" width="1" height="3"></rect>
        <rect id="Rectangle-6" x="0" y="1" width="3" height="1"></rect>
    </g>
    <g id="Group-2" transform="translate(5.000000, 12.000000) scale(1, -1) translate(-5.000000, -12.000000) translate(3.000000, 11.000000)" fill="#000000">
        <rect id="Rectangle-6" x="0" y="0" width="2" height="2"></rect>
        <rect id="Rectangle-6" x="0" y="1" width="4" height="1"></rect>
    </g>
    <path d="M6.5,0.5 L6.5,10.5" id="Line" stroke="#000000" stroke-linecap="square"></path>
    <path d="M10.5,0.5 L10.5,10.5" id="Line" stroke="#000000" stroke-linecap="square"></path>
    <path d="M14.5,0.5 L14.5,10.5" id="Line" stroke="#000000" stroke-linecap="square"></path>
    <path d="M18.5,0.5 L18.5,10.5" id="Line" stroke="#000000" stroke-linecap="square"></path>
  </g>
</svg>
