<svg xmlns="http://www.w3.org/2000/svg" width="44" height="27" viewBox="0 0 44 27">
  <g id="Group" transform="translate(1.000000, 0.000000)">
    <g id="Group-2" transform="translate(18.000000, 13.000000) scale(1, -1) translate(-18.000000, -13.000000) translate(16.000000, 12.000000)" fill="#000000">
        <rect id="Rectangle-6" x="2" y="0" width="2" height="2"></rect>
        <rect id="Rectangle-6" x="0" y="0" width="4" height="1"></rect>
    </g>
    <g id="Group-2" transform="translate(20.000000, 12.000000) scale(1, -1) translate(-20.000000, -12.000000) translate(19.000000, 10.000000)" fill="#000000">
        <rect id="Rectangle-6" x="1" y="0" width="1" height="4"></rect>
        <rect id="Rectangle-6" x="0" y="2" width="2" height="1"></rect>
    </g>
    <g id="Group-2" transform="translate(19.500000, 7.500000) scale(1, -1) translate(-19.500000, -7.500000) translate(18.000000, 6.000000)" fill="#000000">
        <rect id="Rectangle-6" x="2" y="0" width="1" height="3"></rect>
        <rect id="Rectangle-6" x="0" y="1" width="3" height="1"></rect>
    </g>
    <g id="Group-2" transform="translate(20.000000, 3.000000) scale(1, -1) translate(-20.000000, -3.000000) translate(19.000000, 1.000000)" fill="#000000">
        <rect id="Rectangle-6" x="1" y="0" width="1" height="4"></rect>
        <rect id="Rectangle-6" x="0" y="1" width="2" height="1"></rect>
    </g>
    <g id="Group-2" transform="translate(16.500000, 11.500000) scale(1, -1) translate(-16.500000, -11.500000) translate(15.000000, 10.000000)" fill="#000000">
        <rect id="Rectangle-6" x="1" y="0" width="1" height="3"></rect>
        <rect id="Rectangle-6" x="0" y="1" width="3" height="1"></rect>
    </g>
    <g id="Group-2" transform="translate(16.500000, 7.500000) scale(1, -1) translate(-16.500000, -7.500000) translate(15.000000, 6.000000)" fill="#000000">
        <rect id="Rectangle-6" x="1" y="0" width="1" height="3"></rect>
        <rect id="Rectangle-6" x="0" y="1" width="3" height="1"></rect>
    </g>
    <g id="Group-2" transform="translate(16.500000, 3.500000) scale(1, -1) translate(-16.500000, -3.500000) translate(15.000000, 2.000000)" fill="#000000">
        <rect id="Rectangle-6" x="1" y="0" width="1" height="3"></rect>
        <rect id="Rectangle-6" x="0" y="1" width="3" height="1"></rect>
    </g>
    <g id="Group-2" transform="translate(12.500000, 11.500000) scale(1, -1) translate(-12.500000, -11.500000) translate(11.000000, 10.000000)" fill="#000000">
        <rect id="Rectangle-6" x="1" y="0" width="1" height="3"></rect>
        <rect id="Rectangle-6" x="0" y="1" width="3" height="1"></rect>
    </g>
    <g id="Group-2" transform="translate(12.500000, 7.500000) scale(1, -1) translate(-12.500000, -7.500000) translate(11.000000, 6.000000)" fill="#000000">
        <rect id="Rectangle-6" x="1" y="0" width="1" height="3"></rect>
        <rect id="Rectangle-6" x="0" y="1" width="3" height="1"></rect>
    </g>
    <g id="Group-2" transform="translate(12.500000, 3.500000) scale(1, -1) translate(-12.500000, -3.500000) translate(11.000000, 2.000000)" fill="#000000">
        <rect id="Rectangle-6" x="1" y="0" width="1" height="3"></rect>
        <rect id="Rectangle-6" x="0" y="1" width="3" height="1"></rect>
    </g>
    <g id="Group-2" transform="translate(8.500000, 11.500000) scale(1, -1) translate(-8.500000, -11.500000) translate(7.000000, 10.000000)" fill="#000000">
        <rect id="Rectangle-6" x="1" y="0" width="1" height="3"></rect>
        <rect id="Rectangle-6" x="0" y="1" width="3" height="1"></rect>
    </g>
    <g id="Group-2" transform="translate(8.500000, 7.500000) scale(1, -1) translate(-8.500000, -7.500000) translate(7.000000, 6.000000)" fill="#000000">
        <rect id="Rectangle-6" x="1" y="0" width="1" height="3"></rect>
        <rect id="Rectangle-6" x="0" y="1" width="3" height="1"></rect>
    </g>
    <g id="Group-2" transform="translate(8.500000, 3.500000) scale(1, -1) translate(-8.500000, -3.500000) translate(7.000000, 2.000000)" fill="#000000">
        <rect id="Rectangle-6" x="1" y="0" width="1" height="3"></rect>
        <rect id="Rectangle-6" x="0" y="1" width="3" height="1"></rect>
    </g>
    <g id="Group-2" transform="translate(4.500000, 11.500000) scale(1, -1) translate(-4.500000, -11.500000) translate(3.000000, 10.000000)" fill="#000000">
        <rect id="Rectangle-6" x="1" y="0" width="1" height="3"></rect>
        <rect id="Rectangle-6" x="0" y="1" width="3" height="1"></rect>
    </g>
    <g id="Group-2" transform="translate(4.500000, 7.500000) scale(1, -1) translate(-4.500000, -7.500000) translate(3.000000, 6.000000)" fill="#000000">
        <rect id="Rectangle-6" x="1" y="0" width="1" height="3"></rect>
        <rect id="Rectangle-6" x="0" y="1" width="3" height="1"></rect>
    </g>
    <g id="Group-2" transform="translate(4.500000, 3.500000) scale(1, -1) translate(-4.500000, -3.500000) translate(3.000000, 2.000000)" fill="#000000">
        <rect id="Rectangle-6" x="1" y="0" width="1" height="3"></rect>
        <rect id="Rectangle-6" x="0" y="1" width="3" height="1"></rect>
    </g>
    <g id="Group-2" transform="translate(1.000000, 12.000000) scale(1, -1) translate(-1.000000, -12.000000) translate(0.000000, 10.000000)" fill="#000000">
        <rect id="Rectangle-6" x="0" y="0" width="1" height="4"></rect>
        <rect id="Rectangle-6" x="0" y="2" width="2" height="1"></rect>
    </g>
    <g id="Group-2" transform="translate(1.500000, 7.500000) scale(1, -1) translate(-1.500000, -7.500000) translate(0.000000, 6.000000)" fill="#000000">
        <rect id="Rectangle-6" x="0" y="0" width="1" height="3"></rect>
        <rect id="Rectangle-6" x="0" y="1" width="3" height="1"></rect>
    </g>
    <g id="Group-2" transform="translate(1.000000, 3.000000) scale(1, -1) translate(-1.000000, -3.000000) translate(0.000000, 1.000000)" fill="#000000">
        <rect id="Rectangle-6" x="0" y="0" width="1" height="4"></rect>
        <rect id="Rectangle-6" x="0" y="1" width="2" height="1"></rect>
    </g>
    <g id="Group-2" transform="translate(18.500000, 9.500000) scale(1, -1) translate(-18.500000, -9.500000) translate(17.000000, 8.000000)" fill="#000000">
        <rect id="Rectangle-6" x="1" y="0" width="1" height="3"></rect>
        <rect id="Rectangle-6" x="0" y="1" width="3" height="1"></rect>
    </g>
    <g id="Group-2" transform="translate(18.500000, 5.500000) scale(1, -1) translate(-18.500000, -5.500000) translate(17.000000, 4.000000)" fill="#000000">
        <rect id="Rectangle-6" x="1" y="0" width="1" height="3"></rect>
        <rect id="Rectangle-6" x="0" y="1" width="3" height="1"></rect>
    </g>
    <g id="Group-2" transform="translate(18.000000, 2.000000) scale(1, -1) translate(-18.000000, -2.000000) translate(16.000000, 1.000000)" fill="#000000">
        <rect id="Rectangle-6" x="2" y="0" width="2" height="2"></rect>
        <rect id="Rectangle-6" x="0" y="1" width="4" height="1"></rect>
    </g>
    <g id="Group-2" transform="translate(14.500000, 13.000000) scale(1, -1) translate(-14.500000, -13.000000) translate(13.000000, 12.000000)" fill="#000000">
        <rect id="Rectangle-6" x="1" y="0" width="1" height="2"></rect>
        <rect id="Rectangle-6" x="0" y="0" width="3" height="1"></rect>
    </g>
    <g id="Group-2" transform="translate(14.500000, 9.500000) scale(1, -1) translate(-14.500000, -9.500000) translate(13.000000, 8.000000)" fill="#000000">
        <rect id="Rectangle-6" x="1" y="0" width="1" height="3"></rect>
        <rect id="Rectangle-6" x="0" y="1" width="3" height="1"></rect>
    </g>
    <g id="Group-2" transform="translate(14.500000, 5.500000) scale(1, -1) translate(-14.500000, -5.500000) translate(13.000000, 4.000000)" fill="#000000">
        <rect id="Rectangle-6" x="1" y="0" width="1" height="3"></rect>
        <rect id="Rectangle-6" x="0" y="1" width="3" height="1"></rect>
    </g>
    <g id="Group-2" transform="translate(14.500000, 2.000000) scale(1, -1) translate(-14.500000, -2.000000) translate(13.000000, 1.000000)" fill="#000000">
        <rect id="Rectangle-6" x="1" y="0" width="1" height="2"></rect>
        <rect id="Rectangle-6" x="0" y="1" width="3" height="1"></rect>
    </g>
    <g id="Group-2" transform="translate(10.500000, 12.500000) scale(1, -1) translate(-10.500000, -12.500000) translate(9.000000, 11.000000)" fill="#000000">
        <rect id="Rectangle-6" x="1" y="0" width="1" height="3"></rect>
        <rect id="Rectangle-6" x="0" y="0" width="3" height="1"></rect>
    </g>
    <g id="Group-2" transform="translate(10.500000, 9.500000) scale(1, -1) translate(-10.500000, -9.500000) translate(9.000000, 8.000000)" fill="#000000">
        <rect id="Rectangle-6" x="1" y="0" width="1" height="3"></rect>
        <rect id="Rectangle-6" x="0" y="1" width="3" height="1"></rect>
    </g>
    <g id="Group-2" transform="translate(10.500000, 5.500000) scale(1, -1) translate(-10.500000, -5.500000) translate(9.000000, 4.000000)" fill="#000000">
        <rect id="Rectangle-6" x="1" y="0" width="1" height="3"></rect>
        <rect id="Rectangle-6" x="0" y="1" width="3" height="1"></rect>
    </g>
    <g id="Group-2" transform="translate(10.500000, 2.500000) scale(1, -1) translate(-10.500000, -2.500000) translate(9.000000, 1.000000)" fill="#000000">
        <rect id="Rectangle-6" x="1" y="0" width="1" height="3"></rect>
        <rect id="Rectangle-6" x="0" y="2" width="3" height="1"></rect>
    </g>
    <g id="Group-2" transform="translate(6.500000, 13.000000) scale(1, -1) translate(-6.500000, -13.000000) translate(5.000000, 12.000000)" fill="#000000">
        <rect id="Rectangle-6" x="1" y="0" width="1" height="2"></rect>
        <rect id="Rectangle-6" x="0" y="0" width="3" height="1"></rect>
    </g>
    <g id="Group-2" transform="translate(6.500000, 9.500000) scale(1, -1) translate(-6.500000, -9.500000) translate(5.000000, 8.000000)" fill="#000000">
        <rect id="Rectangle-6" x="1" y="0" width="1" height="3"></rect>
        <rect id="Rectangle-6" x="0" y="1" width="3" height="1"></rect>
    </g>
    <g id="Group-2" transform="translate(6.500000, 5.500000) scale(1, -1) translate(-6.500000, -5.500000) translate(5.000000, 4.000000)" fill="#000000">
        <rect id="Rectangle-6" x="1" y="0" width="1" height="3"></rect>
        <rect id="Rectangle-6" x="0" y="1" width="3" height="1"></rect>
    </g>
    <g id="Group-2" transform="translate(6.500000, 2.000000) scale(1, -1) translate(-6.500000, -2.000000) translate(5.000000, 1.000000)" fill="#000000">
        <rect id="Rectangle-6" x="1" y="0" width="1" height="2"></rect>
        <rect id="Rectangle-6" x="0" y="1" width="3" height="1"></rect>
    </g>
    <g id="Group-2" transform="translate(3.000000, 13.000000) scale(1, -1) translate(-3.000000, -13.000000) translate(1.000000, 12.000000)" fill="#000000">
        <rect id="Rectangle-6" x="0" y="0" width="2" height="2"></rect>
        <rect id="Rectangle-6" x="0" y="0" width="4" height="1"></rect>
    </g>
    <g id="Group-2" transform="translate(2.500000, 9.500000) scale(1, -1) translate(-2.500000, -9.500000) translate(1.000000, 8.000000)" fill="#000000">
        <rect id="Rectangle-6" x="1" y="0" width="1" height="3"></rect>
        <rect id="Rectangle-6" x="0" y="1" width="3" height="1"></rect>
    </g>
    <g id="Group-2" transform="translate(2.500000, 5.500000) scale(1, -1) translate(-2.500000, -5.500000) translate(1.000000, 4.000000)" fill="#000000">
        <rect id="Rectangle-6" x="1" y="0" width="1" height="3"></rect>
        <rect id="Rectangle-6" x="0" y="1" width="3" height="1"></rect>
    </g>
    <g id="Group-2" transform="translate(3.000000, 2.000000) scale(1, -1) translate(-3.000000, -2.000000) translate(1.000000, 1.000000)" fill="#000000">
        <rect id="Rectangle-6" x="0" y="0" width="2" height="2"></rect>
        <rect id="Rectangle-6" x="0" y="1" width="4" height="1"></rect>
    </g>
    <path d="M23.5 13.5L42.5 13.5" stroke="black"/>
    <path d="M0 16.5L42.5 16.5" stroke="black"/>
    <path d="M0 19.5L42.5 19.5" stroke="black"/>
    <path d="M0 22.5L42.5 22.5" stroke="black"/>
    <path d="M0 25.5L42.5 25.5" stroke="black"/>
    <path d="M1.5 25.5L42.5 25.5" stroke="black"/>
    <path d="M23.5 10.5L42.5 10.5" stroke="black"/>
    <path d="M23.5 7.5L42.5 7.5" stroke="black"/>
    <path d="M23.5 4.5L42.5 4.5" stroke="black"/>
    <path d="M23.5 1.5L42.5 1.5" stroke="black"/>
  </g>
</svg>